<svg xmlns="http://www.w3.org/2000/svg" viewBox="0 0 1200 640" role="img" aria-labelledby="t d" font-family="'Instrument Sans','Segoe UI',Helvetica,Arial,sans-serif">
<title id="t">System Context Diagram for Project Pulse</title>
<desc id="d">Project Pulse as one box: an instructor and a senior design student use it; it sends email through Gmail, which delivers it to both, and requests AI review from an LLM service. Redrawn from the mermaid C4 in Project Pulse's architecture-of-record.</desc>
<defs>
  <marker id="req" viewBox="0 0 10 10" refX="9" refY="5" markerWidth="7" markerHeight="7" orient="auto-start-reverse"><path d="M0,0 L10,5 L0,10 z" fill="#9B6BD6"/></marker>
  <marker id="bad" viewBox="0 0 10 10" refX="9" refY="5" markerWidth="7" markerHeight="7" orient="auto-start-reverse"><path d="M0,0 L10,5 L0,10 z" fill="#FF4D4D"/></marker>
  <filter id="sh" x="-10%" y="-10%" width="120%" height="140%"><feDropShadow dx="0" dy="3" stdDeviation="4" flood-color="#000" flood-opacity="0.45"/></filter>
  <linearGradient id="zone" x1="0" y1="0" x2="1" y2="1"><stop offset="0" stop-color="#9B6BD6" stop-opacity="0.10"/><stop offset="1" stop-color="#9B6BD6" stop-opacity="0.03"/></linearGradient>
  <linearGradient id="cyl" x1="0" y1="0" x2="1" y2="0"><stop offset="0" stop-color="#26324A"/><stop offset="0.5" stop-color="#34425F"/><stop offset="1" stop-color="#26324A"/></linearGradient>
</defs>
<rect width="1200" height="640" rx="18" fill="#0F1420"/>
<text x="600.0" y="30" text-anchor="middle" fill="#F2EDE3" font-size="17" font-weight="700">System Context Diagram for Project Pulse</text>
<path d="M1035.0,70 L1035.0,50 L165.0,50 L165.0,70" fill="none" stroke="#9B6BD6" stroke-width="1.8" stroke-linejoin="round" marker-end="url(#req)"/><rect x="546.75" y="39.5" width="106.5" height="21" rx="6" fill="#0F1420" fill-opacity="0.92"/><text x="600" y="54.5" text-anchor="middle" fill="#9AA3B5" font-size="12" font-weight="500">Sends emails to</text><path d="M1160,130.0 L1180,130.0 L1180,545 L165.0,545 L165.0,510" fill="none" stroke="#9B6BD6" stroke-width="1.8" stroke-linejoin="round" marker-end="url(#req)"/><rect x="546.75" y="534.5" width="106.5" height="21" rx="6" fill="#0F1420" fill-opacity="0.92"/><text x="600" y="549.5" text-anchor="middle" fill="#9AA3B5" font-size="12" font-weight="500">Sends emails to</text><path d="M290,172.0 L380,172.0 L380,255 L470,255.0" fill="none" stroke="#9B6BD6" stroke-width="1.8" stroke-linejoin="round" marker-end="url(#req)"/><rect x="311.0" y="187.0" width="138.0" height="36" rx="6" fill="#0F1420" fill-opacity="0.92"/><text x="380" y="202.0" text-anchor="middle" fill="#9AA3B5" font-size="12" font-weight="500">Manages courses;</text><text x="380" y="217.0" text-anchor="middle" fill="#9AA3B5" font-size="12" font-weight="500">reviews requirements</text><path d="M290,435.0 L380,435.0 L380,315 L470,315.0" fill="none" stroke="#9B6BD6" stroke-width="1.8" stroke-linejoin="round" marker-end="url(#req)"/><rect x="311.0" y="377.0" width="138.0" height="36" rx="6" fill="#0F1420" fill-opacity="0.92"/><text x="380" y="392.0" text-anchor="middle" fill="#9AA3B5" font-size="12" font-weight="500">Submits work;</text><text x="380" y="407.0" text-anchor="middle" fill="#9AA3B5" font-size="12" font-weight="500">authors requirements</text><path d="M730,257.0 L820,257.0 L820,130.0 L910,130.0" fill="none" stroke="#9B6BD6" stroke-width="1.8" stroke-linejoin="round" marker-end="url(#req)"/><rect x="757.3" y="194.5" width="125.39999999999999" height="21" rx="6" fill="#0F1420" fill-opacity="0.92"/><text x="820" y="209.5" text-anchor="middle" fill="#9AA3B5" font-size="12" font-weight="500">Sends emails using</text><path d="M730,320.0 L820,320.0 L820,440.0 L910,440.0" fill="none" stroke="#9B6BD6" stroke-width="1.8" stroke-linejoin="round" marker-end="url(#req)"/><rect x="757.3" y="359.5" width="125.39999999999999" height="21" rx="6" fill="#0F1420" fill-opacity="0.92"/><text x="820" y="374.5" text-anchor="middle" fill="#9AA3B5" font-size="12" font-weight="500">Requests AI review</text><g filter="url(#sh)"><rect x="40" y="70" width="250" height="170" rx="12" fill="#171E2E" stroke="#2C374E"/></g><rect x="40" y="70" width="250" height="5" rx="2.5" fill="#9B6BD6"/><circle cx="165.0" cy="89" r="7" fill="none" stroke="#9B6BD6" stroke-width="2"/><path d="M154.0,112 a11,12 0 0 1 22,0" fill="none" stroke="#9B6BD6" stroke-width="2"/><text x="165.0" y="130" text-anchor="middle" fill="#F2EDE3" font-size="16" font-weight="700">Instructor</text><text x="165.0" y="148" text-anchor="middle" fill="#9AA3B5" font-size="11.5" font-weight="500" font-style="italic">[Person]</text><text x="165.0" y="164" text-anchor="middle" fill="#C9CED8" font-size="12" font-weight="500">Teaches a course section; a course</text><text x="165.0" y="180" text-anchor="middle" fill="#C9CED8" font-size="12" font-weight="500">admin is an instructor who also runs</text><text x="165.0" y="196" text-anchor="middle" fill="#C9CED8" font-size="12" font-weight="500">the course</text><g filter="url(#sh)"><rect x="40" y="360" width="250" height="150" rx="12" fill="#171E2E" stroke="#2C374E"/></g><rect x="40" y="360" width="250" height="5" rx="2.5" fill="#9B6BD6"/><circle cx="165.0" cy="379" r="7" fill="none" stroke="#9B6BD6" stroke-width="2"/><path d="M154.0,402 a11,12 0 0 1 22,0" fill="none" stroke="#9B6BD6" stroke-width="2"/><text x="165.0" y="420" text-anchor="middle" fill="#F2EDE3" font-size="16" font-weight="700">Senior Design Student</text><text x="165.0" y="438" text-anchor="middle" fill="#9AA3B5" font-size="11.5" font-weight="500" font-style="italic">[Person]</text><text x="165.0" y="454" text-anchor="middle" fill="#C9CED8" font-size="12" font-weight="500">Member of a team in a course section</text><g filter="url(#sh)"><rect x="470" y="215" width="260" height="140" rx="12" fill="#171E2E" stroke="#2C374E"/></g><rect x="470" y="215" width="260" height="5" rx="2.5" fill="#9B6BD6"/><text x="600.0" y="241" text-anchor="middle" fill="#F2EDE3" font-size="18" font-weight="700">Project Pulse</text><text x="600.0" y="259" text-anchor="middle" fill="#9AA3B5" font-size="11.5" font-weight="500" font-style="italic">[Software System]</text><text x="600.0" y="275" text-anchor="middle" fill="#C9CED8" font-size="12" font-weight="500">Tracks team performance and supports</text><text x="600.0" y="291" text-anchor="middle" fill="#C9CED8" font-size="12" font-weight="500">requirements authoring</text><g filter="url(#sh)"><rect x="910" y="70" width="250" height="120" rx="12" fill="#1E273A" stroke="#2C374E"/></g><rect x="910" y="70" width="250" height="5" rx="2.5" fill="#6B7890"/><text x="1035.0" y="96" text-anchor="middle" fill="#F2EDE3" font-size="16" font-weight="700">Gmail</text><text x="1035.0" y="114" text-anchor="middle" fill="#9AA3B5" font-size="11.5" font-weight="500" font-style="italic">[Software System]</text><text x="1035.0" y="130" text-anchor="middle" fill="#C9CED8" font-size="12" font-weight="500">Email system</text><g filter="url(#sh)"><rect x="910" y="380" width="250" height="120" rx="12" fill="#1E273A" stroke="#2C374E"/></g><rect x="910" y="380" width="250" height="5" rx="2.5" fill="#6B7890"/><text x="1035.0" y="406" text-anchor="middle" fill="#F2EDE3" font-size="16" font-weight="700">LLM Service</text><text x="1035.0" y="424" text-anchor="middle" fill="#9AA3B5" font-size="11.5" font-weight="500" font-style="italic">[Software System]</text><text x="1035.0" y="440" text-anchor="middle" fill="#C9CED8" font-size="12" font-weight="500">AI-assisted requirement review</text><line x1="24" y1="594" x2="1176" y2="594" stroke="#2C374E"/><circle cx="49" cy="605" r="7" fill="none" stroke="#9B6BD6" stroke-width="2"/><path d="M38,628 a11,12 0 0 1 22,0" fill="none" stroke="#9B6BD6" stroke-width="2"/><text x="76" y="616" text-anchor="start" fill="#9AA3B5" font-size="13" font-weight="500">person</text><rect x="146.2" y="601" width="34" height="22" rx="5" fill="#171E2E" stroke="#2C374E"/><rect x="146.2" y="601" width="34" height="4" rx="2" fill="#9B6BD6"/><text x="190.2" y="616" text-anchor="start" fill="#9AA3B5" font-size="13" font-weight="500">the system</text><rect x="287.2" y="601" width="34" height="22" rx="5" fill="#1E273A" stroke="#2C374E"/><rect x="287.2" y="601" width="34" height="4" rx="2" fill="#6B7890"/><text x="331.2" y="616" text-anchor="start" fill="#9AA3B5" font-size="13" font-weight="500">external system</text><line x1="461.7" y1="612" x2="495.7" y2="612" stroke="#9B6BD6" stroke-width="2" marker-end="url(#req)"/><text x="505.7" y="616" text-anchor="start" fill="#9AA3B5" font-size="13" font-weight="500">relationship</text></svg>
