<!-- The Shopper, primary actor of "Place an order". Drawn in the character system of
     the week 1 story deck (docs/slides/tier1/fifteen-weeks-to-demo-day.part.html):
     P() with col C[3], hair('pony'), face('happy'), skin SKIN[0]. The shopping bag is
     the only addition. -->
<svg xmlns="http://www.w3.org/2000/svg" viewBox="0 0 120 264" width="120" height="264" role="img" aria-label="The Shopper, carrying a shopping bag">
  <g transform="translate(55,254)">
    <rect x="-13" y="-62" width="24" height="64" rx="12" fill="#2B3346"/>
    <rect x="0" y="-62" width="24" height="64" rx="12" fill="#2B3346"/>
    <g transform="translate(-38,-152) rotate(-8)"><rect x="-9" y="-4" width="18" height="70" rx="9" fill="#F0C39B"/></g>
    <g transform="translate(38,-152) rotate(8)"><rect x="-9" y="-4" width="18" height="70" rx="9" fill="#F0C39B"/></g>
    <rect x="-40" y="-166" width="80" height="112" rx="32" fill="#4EA8F5"/>
    <path d="M24,-92 q10,-18 20,0" stroke="#0F1420" stroke-width="3.5" fill="none" stroke-linecap="round"/>
    <rect x="16" y="-92" width="36" height="40" rx="4" fill="#FFB443"/>
    <circle cx="0" cy="-198" r="38" fill="#F0C39B"/>
    <path d="M-37,-200 a37,37 0 0 1 74,0 q-37,-20 -74,0z" fill="#3B2A1E"/>
    <path d="M32,-206 q26,10 22,44 q-4,20 -18,16 q10,-30 -12,-50z" fill="#3B2A1E"/>
    <circle cx="-13" cy="-202" r="5" fill="#0F1420"/>
    <circle cx="13" cy="-202" r="5" fill="#0F1420"/>
    <path d="M-13,-186 q13,13 26,0" stroke="#0F1420" stroke-width="4" fill="none" stroke-linecap="round"/>
  </g>
</svg>
